# xmcd CD database file
#
# Track frame offsets:
#	150
#	11326
#	22903
#	34283
#	46048
#	56163
#	69949
#	80509
#	93714
#	105733
#
# Disc length: 1605 seconds
#
# Revision: 0
# Processed by: cddbd v1.5.1PL2 Copyright (c) Steve Scherf et al.
# Submitted via: CDex 1.70beta2
#
DISCID=7506430a
DTITLE=Various Artist - That's Country - Ladies Of Country
DYEAR=2004
DGENRE=Country
TTITLE0=Kitty Wells - It Wasn't God Who Made Honky Tonk Angels
TTITLE1=Patsy Cline - Walkin' After Midnight
TTITLE2=Wanda Jackson - In The Middle Of A Heartache
TTITLE3=Skeeter Davis - End Of The World
TTITLE4=Connie Smith - Once A Day
TTITLE5=Jeannie Seeley - Don't Touch Me
TTITLE6=Lynn Anderson - If I Kiss You (Will You Go Away?)
TTITLE7=Tammy Wynette - D-I-V-O-R-C-E
TTITLE8=Dolly Parton - Makin' Believe
TTITLE9=Jeannie C. Riley - Harper Valley P.T.A.
EXTD=YEAR: 2004
EXTT0=
EXTT1=
EXTT2=
EXTT3=
EXTT4=
EXTT5=
EXTT6=
EXTT7=
EXTT8=
EXTT9=
PLAYORDER=
